<?xml version="1.0" encoding="UTF-8" standalone="no"?>
<!DOCTYPE svg PUBLIC "-//W3C//DTD SVG 1.1//EN" "http://www.w3.org/Graphics/SVG/1.1/DTD/svg11.dtd">
<!-- Created with Vectornator (http://vectornator.io/) -->
<svg height="100%" stroke-miterlimit="10" style="fill-rule:nonzero;clip-rule:evenodd;stroke-linecap:round;stroke-linejoin:round;" version="1.1" viewBox="0 0 100 100" width="100%" xml:space="preserve" xmlns="http://www.w3.org/2000/svg" xmlns:vectornator="http://vectornator.io" xmlns:xlink="http://www.w3.org/1999/xlink">
<defs/>
<g id="SvgjsG1007" vectornator:layerName="SvgjsG1007">
<path d="M0.235543 47.8831C10.2898 57.8612 21.3847 60.1817 34.9431 59.3865C29.004 66.6105 24.4428 75.4782 27.5143 85.3208C28.6636 88.9924 30.0315 92.7513 32.7231 95.6335C32.7231 95.6335 35.1849 98.2733 35.1879 98.2767C35.7407 98.8673 43.1939 93.81 43.9549 93.251C46.8483 91.1107 49.4058 88.5351 51.5837 85.6723C54.9173 81.2952 56.3949 77.0264 57.7249 71.8382C60.9846 76.4466 63.3768 80.9985 68.5022 83.8793C78.3788 89.4295 87.7105 88.6632 97.4673 83.7309C99.2838 82.8104 92.4791 68.5355 91.4422 67.0705C88.1325 62.3958 82.8938 58.5078 77.8009 55.947C77.8009 55.947 73.5883 53.9564 73.5325 53.9295C75.6051 54.9109 82.2337 51.9328 84.1249 51.0542C88.9511 48.8067 94.2922 43.3859 96.5314 38.5938C97.3148 36.9165 100.339 21.7018 98.076 21.2347C94.9328 20.5875 92.1285 19.9069 88.8552 20.0676C80.4914 20.4831 73.6988 22.4768 67.4254 28.0809C67.4254 28.0809 64.1744 30.982 64.1656 30.9887C64.8861 30.3463 63.1838 21.9086 62.9833 20.8462C62.0605 15.999 57.2451 9.63307 53.3923 6.70984C48.8868 3.29183 43.2209 2.42699 37.7673 1.6795C35.6129 1.38343 33.6319 17.3735 33.6323 18.9842C33.6481 24.7734 35.4582 29.4195 37.9389 34.5133C37.3135 33.2246 31.0248 32.0705 29.6217 31.7674C26.8929 31.1781 24.1189 31.0029 21.3581 31.4882C16.3817 32.3685 9.35108 36.8929 5.39207 40.041C4.60118 40.6693-1.23134 46.4221 0.235543 47.8831ZM18.1382 40.1242C21.0038 37.2845 25.8313 35.9086 29.8428 35.4432C32.0498 35.1872 37.6322 36.0148 40.8871 37.8274C38.3445 32.399 38.1945 27.4193 40.4727 22.3263C42.7509 17.2333 45.5388 16.5067 50 16.8927C54.437 17.2766 55.8069 19.1969 59.2018 24.5675C60.3187 26.3336 62.5548 34.2828 62.1305 36.9589C69.2897 29.5158 77.0154 29.9836 81.1675 34.5779C83.6328 37.3056 83.8203 41.0698 82.2845 45.0209C81.262 47.6514 78.4197 49.1318 76.0078 50.5964C74.9583 51.2352 69.8112 54.3844 68.6598 53.805C75.4388 57.2063 83.2732 61.8809 83.3991 69.9371C83.5188 77.5969 70.4998 79.2448 66.2944 76.7858C62.2953 74.4501 59.5627 70.4714 57.0607 66.7991C55.7409 71.6094 52.9425 76.3012 49.1438 79.71C47.6318 81.0645 42.8056 83.0585 38.3512 80.7703C34.9501 79.0233 32.5244 74.6228 32.9733 70.9784C33.5363 66.3771 36.0221 60.5606 38.9847 57.0807C28.2941 57.527 22.7377 57.2661 17.9978 52.3559C14.6005 48.8366 15.0748 43.1599 18.1382 40.1242Z" fill="#ff8200" fill-rule="nonzero" opacity="1" stroke="none" vectornator:layerName="path"/>
</g>
<g id="SvgjsG1008" vectornator:layerName="SvgjsG1008"/>
</svg>
