<svg width="32" height="32" viewBox="0 0 32 32" fill="none" xmlns="http://www.w3.org/2000/svg">
<path d="M0.451002 20.7057C0.0459354 20.7057 -0.0862739 20.5153 0.0543743 20.1345L4.18943 8.99534C4.36383 8.52796 4.62825 8.29427 4.98269 8.29427H6.16413C6.51856 8.29427 6.78298 8.52796 6.95739 8.99534L11.0924 20.1345C11.2331 20.5153 11.1009 20.7057 10.6958 20.7057H9.35403C8.98272 20.7057 8.72393 20.5067 8.57765 20.1085L7.71689 17.7803H3.42993L2.56916 20.1085C2.42289 20.5067 2.1641 20.7057 1.79279 20.7057H0.451002ZM4.21475 15.6338H6.93207L5.89409 12.8815C5.77032 12.5584 5.69437 12.3247 5.66624 12.1804C5.64373 12.0304 5.61842 11.8111 5.59029 11.5226H5.55653C5.5284 11.8111 5.50027 12.0304 5.47214 12.1804C5.44964 12.3247 5.3765 12.5584 5.25273 12.8815L4.21475 15.6338Z" fill="#FF8200"/>
<path d="M12.2327 20.7057C11.7826 20.7057 11.5576 20.4893 11.5576 20.0566V8.94341C11.5576 8.51065 11.7826 8.29427 12.2327 8.29427H15.1019C17.2623 8.29427 18.7194 8.56835 19.4733 9.11651C20.2328 9.6589 20.6125 10.4956 20.6125 11.6265C20.6125 12.417 20.3284 13.0286 19.7602 13.4614C19.1976 13.8941 18.6519 14.1451 18.1231 14.2144V14.2403C18.635 14.275 19.237 14.5404 19.929 15.0366C20.621 15.5328 20.967 16.2339 20.967 17.1398C20.967 18.2015 20.545 19.0613 19.7011 19.719C18.8572 20.3768 17.4648 20.7057 15.5239 20.7057H12.2327ZM14.0218 18.5939H15.2538C16.4465 18.5939 17.2567 18.4871 17.6842 18.2736C18.1174 18.0601 18.334 17.6274 18.334 16.9754C18.334 16.3637 18.0837 15.9425 17.583 15.7117C17.0879 15.4751 16.3115 15.3569 15.2538 15.3569H14.0218V18.5939ZM14.0218 13.3142H15.1272C15.853 13.3142 16.5309 13.1844 17.161 12.9248C17.7967 12.6651 18.1146 12.2612 18.1146 11.713C18.1146 11.2861 17.9374 10.9629 17.583 10.7437C17.2342 10.5186 16.4156 10.4061 15.1272 10.4061H14.0218V13.3142Z" fill="#FF8200"/>
<path d="M21.5418 14.5C21.5418 12.5093 22.0341 10.9283 23.0186 9.75699C24.0032 8.58566 25.4237 8 27.2803 8C28.3492 8 29.255 8.17022 29.9976 8.51065C30.7402 8.85109 31.2634 9.34443 31.5672 9.99068C31.7698 10.4177 31.736 10.7062 31.466 10.8562L30.4533 11.4101C30.0989 11.6063 29.8063 11.4967 29.5756 11.0812C29.4294 10.8158 29.1565 10.5763 28.7571 10.3628C28.3633 10.1494 27.8991 10.0426 27.3647 10.0426C26.1832 10.0426 25.3562 10.4263 24.8836 11.1937C24.411 11.9554 24.1748 13.0575 24.1748 14.5C24.1748 15.9425 24.411 17.0475 24.8836 17.8149C25.3562 18.5766 26.1832 18.9574 27.3647 18.9574C28.0004 18.9574 28.5348 18.8103 28.968 18.516C29.4069 18.2217 29.7107 17.9419 29.8794 17.6764C30.1551 17.2437 30.4477 17.134 30.7571 17.3475L31.7698 18.0399C32.0454 18.2304 32.0736 18.5189 31.8541 18.9055C31.5278 19.4825 30.9681 19.9758 30.1748 20.3855C29.3815 20.7952 28.4167 21 27.2803 21C25.4518 21 24.0369 20.4143 23.0355 19.243C22.0397 18.0717 21.5418 16.4907 21.5418 14.5Z" fill="#FF8200"/>
</svg>
