<svg
    width="32"
    height="32"
    viewBox="0 0 32 32"
    fill="none"
    xmlns="http://www.w3.org/2000/svg"
>
    <rect
        x="1"
        y="9"
        width="30"
        height="13"
        rx="3"
        stroke="currentColor"
        stroke-width="2"
    />
    <path
        d="M12.5687 13.7039C12.5687 13.8426 12.55 13.9813 12.5127 14.1199C12.4807 14.2586 12.4247 14.3866 12.3447 14.5039C12.2647 14.6159 12.1607 14.7173 12.0327 14.8079C11.9047 14.8933 11.75 14.9573 11.5687 14.9999V15.0479C11.7287 15.0746 11.8807 15.1199 12.0247 15.1839C12.1687 15.2479 12.294 15.3359 12.4007 15.4479C12.5074 15.5599 12.59 15.6959 12.6487 15.8559C12.7127 16.0159 12.7447 16.2053 12.7447 16.4239C12.7447 16.7119 12.6834 16.9626 12.5607 17.1759C12.438 17.3839 12.2727 17.5546 12.0647 17.6879C11.862 17.8213 11.63 17.9199 11.3687 17.9839C11.1074 18.0479 10.838 18.0799 10.5607 18.0799C10.47 18.0799 10.3527 18.0799 10.2087 18.0799C10.07 18.0799 9.91802 18.0746 9.75269 18.0639C9.59269 18.0586 9.42736 18.0479 9.25669 18.0319C9.09136 18.0159 8.93936 17.9919 8.80069 17.9599V12.4399C8.90202 12.4239 9.01669 12.4079 9.14469 12.3919C9.27802 12.3759 9.41936 12.3626 9.56869 12.3519C9.71802 12.3413 9.87002 12.3333 10.0247 12.3279C10.1847 12.3226 10.342 12.3199 10.4967 12.3199C10.758 12.3199 11.0114 12.3413 11.2567 12.3839C11.5074 12.4213 11.7287 12.4906 11.9207 12.5919C12.118 12.6933 12.2754 12.8346 12.3927 13.0159C12.51 13.1973 12.5687 13.4266 12.5687 13.7039ZM10.5687 17.1759C10.702 17.1759 10.83 17.1599 10.9527 17.1279C11.0807 17.0959 11.1927 17.0479 11.2887 16.9839C11.3847 16.9146 11.462 16.8293 11.5207 16.7279C11.5794 16.6266 11.6087 16.5066 11.6087 16.3679C11.6087 16.1919 11.574 16.0533 11.5047 15.9519C11.4354 15.8506 11.3447 15.7733 11.2327 15.7199C11.1207 15.6613 10.9954 15.6239 10.8567 15.6079C10.718 15.5919 10.5794 15.5839 10.4407 15.5839H9.85669V17.1279C9.88336 17.1386 9.92602 17.1466 9.98469 17.1519C10.0434 17.1573 10.1047 17.1626 10.1687 17.1679C10.238 17.1679 10.3074 17.1706 10.3767 17.1759C10.4514 17.1759 10.5154 17.1759 10.5687 17.1759ZM10.2087 14.7519C10.2834 14.7519 10.3687 14.7493 10.4647 14.7439C10.566 14.7386 10.6487 14.7306 10.7127 14.7199C10.9154 14.6559 11.0887 14.5599 11.2327 14.4319C11.382 14.3039 11.4567 14.1359 11.4567 13.9279C11.4567 13.7893 11.43 13.6746 11.3767 13.5839C11.3234 13.4933 11.2514 13.4213 11.1607 13.3679C11.0754 13.3146 10.9767 13.2773 10.8647 13.2559C10.7527 13.2346 10.6354 13.2239 10.5127 13.2239C10.374 13.2239 10.246 13.2266 10.1287 13.2319C10.0114 13.2373 9.92069 13.2453 9.85669 13.2559V14.7519H10.2087Z"
        fill="currentColor"
    />
    <path
        d="M14.0296 14.8799H13.2376V13.9999H14.0296V13.0879L15.0696 12.7919V13.9999H17.1656V14.8799H15.0696V16.0239C15.0696 16.4346 15.1469 16.7333 15.3016 16.9199C15.4562 17.1013 15.6722 17.1919 15.9496 17.1919C16.0936 17.1919 16.2242 17.1759 16.3416 17.1439C16.4589 17.1066 16.5629 17.0613 16.6536 17.0079C16.7496 16.9546 16.8349 16.8959 16.9096 16.8319C16.9896 16.7679 17.0616 16.7093 17.1256 16.6559L17.6056 17.3759C17.5149 17.4826 17.4002 17.5813 17.2616 17.6719C17.1282 17.7573 16.9816 17.8346 16.8216 17.9039C16.6669 17.9679 16.5042 18.0186 16.3336 18.0559C16.1629 18.0933 15.9949 18.1119 15.8296 18.1119C15.2322 18.1119 14.7816 17.9466 14.4776 17.6159C14.1789 17.2799 14.0296 16.7493 14.0296 16.0239V14.8799Z"
        fill="currentColor"
    />
    <path
        d="M17.9944 13.9999H19.3944L19.5144 14.5279H19.5464C19.6691 14.3573 19.8451 14.2079 20.0744 14.0799C20.3038 13.9519 20.5784 13.8879 20.8984 13.8879C21.0958 13.8879 21.2798 13.9146 21.4504 13.9679C21.6264 14.0213 21.7758 14.1093 21.8984 14.2319C22.0211 14.3546 22.1171 14.5226 22.1864 14.7359C22.2611 14.9439 22.2984 15.2026 22.2984 15.5119V17.9999H21.2584V15.7279C21.2584 15.4026 21.1838 15.1679 21.0344 15.0239C20.8904 14.8799 20.7064 14.8079 20.4824 14.8079C20.2851 14.8079 20.1038 14.8666 19.9384 14.9839C19.7784 15.0959 19.6691 15.2373 19.6104 15.4079V17.9999H18.5704V14.8799H17.9944V13.9999Z"
        fill="currentColor"
    />
</svg>