<svg width="32" height="32" viewBox="0 0 32 32" fill="none" xmlns="http://www.w3.org/2000/svg">
<path d="M18.7392 24.883L22.3117 22.785C22.4779 22.6874 22.5989 22.5271 22.6479 22.3398C22.6971 22.1522 22.6701 21.9528 22.5734 21.7853L21.6011 20.103C21.7524 19.8951 21.8881 19.6851 22.011 19.4684C22.134 19.2518 22.245 19.0275 22.3462 18.7906L24.2774 18.7836C24.4697 18.7829 24.6539 18.7051 24.7894 18.5676C24.9249 18.4299 25.0007 18.2437 25 18.0497L24.9848 13.8816C24.9841 13.6877 24.907 13.5019 24.7705 13.3654C24.6346 13.2294 24.4509 13.1531 24.2596 13.1531C24.2587 13.1531 24.2576 13.1531 24.2568 13.1531L22.3234 13.1608C22.1198 12.7001 21.8675 12.2643 21.5691 11.8574L22.5303 10.1644C22.7292 9.81393 22.6087 9.36716 22.261 9.16674L18.6733 7.09658C18.5064 7.00027 18.3085 6.97482 18.1227 7.0255C17.9371 7.07641 17.7791 7.19951 17.6837 7.36788L16.7223 9.0611C16.2241 9.00815 15.7221 9.00971 15.2256 9.06569L14.2525 7.38066C14.1557 7.21299 13.9967 7.09104 13.8109 7.0415C13.6249 6.99209 13.427 7.01907 13.2608 7.11665L9.68819 9.21475C9.34219 9.418 9.22502 9.86557 9.42654 10.2145L10.3987 11.8975C10.2483 12.1041 10.1128 12.3141 9.9894 12.5315C9.86603 12.7489 9.75502 12.9729 9.65444 13.2086L7.72242 13.2161C7.32192 13.2177 6.99855 13.5462 7 13.9499L7.01517 18.118C7.01593 18.3119 7.093 18.4977 7.22955 18.6343C7.3654 18.7703 7.54903 18.8465 7.7404 18.8465C7.74129 18.8465 7.74223 18.8465 7.74312 18.8465L9.67716 18.8392C9.88041 19.2996 10.1326 19.7354 10.4314 20.1427L9.47033 21.8356C9.37481 22.004 9.34946 22.2035 9.39983 22.3907C9.4503 22.5777 9.57243 22.737 9.73944 22.8334L13.3272 24.9034C13.4408 24.9689 13.5646 25 13.6868 25C13.9384 25 14.183 24.8679 14.317 24.632L15.2782 22.9388C15.7774 22.992 16.2794 22.9903 16.7744 22.9342L17.7476 24.6191C17.8445 24.7867 18.0034 24.9087 18.1894 24.9582C18.3751 25.0076 18.573 24.9807 18.7392 24.883ZM17.7798 21.7696C17.6249 21.5014 17.3185 21.3613 17.0171 21.4193C16.3665 21.5447 15.6844 21.5467 15.0222 21.4258C14.7197 21.3705 14.416 21.5131 14.2633 21.782L13.4181 23.2712L11.0893 21.9274L11.9346 20.4383C12.0873 20.1695 12.0553 19.8328 11.855 19.5982C11.4133 19.0809 11.0749 18.4961 10.8495 17.8602C10.7463 17.5693 10.4729 17.3751 10.1666 17.3751C10.1658 17.3751 10.1648 17.3751 10.1639 17.3751L8.46304 17.3815L8.45309 14.6755L10.1538 14.669C10.461 14.6677 10.7342 14.4716 10.8356 14.1792C10.9522 13.8429 11.0872 13.5415 11.2483 13.258C11.4095 12.974 11.5987 12.7041 11.8269 12.433C12.0258 12.1967 12.0552 11.8598 11.9007 11.5921L11.0449 10.1104L13.3639 8.74832L14.2196 10.2296C14.3742 10.4972 14.6792 10.6381 14.981 10.5802C15.6356 10.4556 16.3182 10.4534 16.9778 10.5741C17.2798 10.63 17.5842 10.4868 17.7368 10.218L18.5822 8.72885L20.9111 10.0726L20.0657 11.5617C19.9132 11.8305 19.9451 12.167 20.1453 12.4017C20.5863 12.9185 20.9249 13.5036 21.1515 14.1408C21.2549 14.4314 21.5282 14.6251 21.8342 14.6251C21.8352 14.6251 21.8362 14.6251 21.8371 14.6251L23.5369 14.6183L23.5469 17.3239L21.8473 17.33C21.5404 17.3312 21.2674 17.527 21.1657 17.819C21.0473 18.1584 20.9122 18.4603 20.7523 18.7421C20.5923 19.0239 20.4026 19.2944 20.1722 19.569C19.9741 19.8053 19.9449 20.1418 20.0994 20.409L20.9551 21.8896L18.6359 23.2514L17.7798 21.7696Z" fill="#FF8200"/>
<path d="M19.4042 17.9641C19.9247 17.0475 20.0598 15.9813 19.7849 14.9621C19.51 13.9429 18.8576 13.0925 17.9484 12.5679C17.3556 12.2258 16.6828 12.0449 16.003 12.0449C14.5985 12.0449 13.2929 12.8077 12.5958 14.0356C11.5216 15.9281 12.1747 18.3488 14.0517 19.4318C14.6446 19.7739 15.3173 19.9547 15.9971 19.9547C17.4016 19.9548 18.7072 19.192 19.4042 17.9641ZM18.1454 17.2378C17.7061 18.0117 16.8828 18.4925 15.997 18.4925C15.5695 18.4925 15.1459 18.3784 14.7721 18.1628C13.5892 17.4802 13.1776 15.9547 13.8546 14.7619C14.294 13.9881 15.1173 13.5072 16.003 13.5072C16.4305 13.5072 16.8541 13.6213 17.2279 13.8371C17.801 14.1677 18.212 14.7035 18.3854 15.3458C18.5585 15.9882 18.4734 16.6601 18.1454 17.2378Z" fill="#FF8200"/>
</svg>
