<svg xmlns="http://www.w3.org/2000/svg" viewBox="0 0 24 24" fill="currentColor">
    <path
        d="M20.317 4.37a19.79 19.79 0 00-4.885-1.515.075.075 0 00-.078.037c-.211.375-.445.865-.608 1.25-1.845-.276-3.68-.276-5.487 0-.164-.394-.406-.874-.618-1.25a.077.077 0 00-.079-.037 19.736 19.736 0 00-4.885 1.515.07.07 0 00-.032.028C.533 9.046-.319 13.58.099 18.058a.082.082 0 00.031.056c2.053 1.508 4.041 2.423 5.993 3.03a.078.078 0 00.084-.028c.462-.63.873-1.295 1.226-1.994a.076.076 0 00-.042-.106 12.32 12.32 0 01-1.872-.892.077.077 0 01-.008-.128c.126-.094.252-.192.372-.291a.074.074 0 01.078-.01c3.928 1.794 8.18 1.794 12.062 0a.074.074 0 01.078.01c.12.098.246.197.373.291a.077.077 0 01-.007.128 12.3 12.3 0 01-1.873.891.077.077 0 00-.04.107c.36.698.772 1.363 1.225 1.993a.076.076 0 00.084.029c1.961-.607 3.95-1.522 6.002-3.03a.077.077 0 00.032-.055c.5-5.177-.838-9.674-3.549-13.66a.061.061 0 00-.032-.029zM8.02 15.331c-1.183 0-2.157-1.086-2.157-2.419 0-1.333.956-2.419 2.157-2.419 1.211 0 2.176 1.095 2.157 2.419 0 1.333-.956 2.419-2.157 2.419zm7.975 0c-1.183 0-2.157-1.086-2.157-2.419 0-1.333.956-2.419 2.157-2.419 1.211 0 2.176 1.095 2.157 2.419 0 1.333-.946 2.419-2.157 2.419z"
    />
</svg>
