<svg width="32" height="32" viewBox="0 0 32 32" fill="none" xmlns="http://www.w3.org/2000/svg">
<path d="M18.9831 18.9831C18.3786 19.5876 17.6096 19.9897 16.7812 20.1458V11.8542C17.6096 12.0103 18.3786 12.4124 18.9831 13.0169C19.7743 13.8081 20.2188 14.8811 20.2188 16C20.2188 17.1189 19.7743 18.1919 18.9831 18.9831Z" fill="currentColor" stroke="currentColor" stroke-width="1.5625"/>
<path d="M15.2188 28.1942C8.8343 27.7914 3.78125 22.4861 3.78125 16C3.78125 9.5139 8.8343 4.20863 15.2188 3.80582V10.2718C13.974 10.4415 12.8104 11.0137 11.912 11.912C10.8278 12.9962 10.2188 14.4667 10.2188 16C10.2188 17.5333 10.8278 19.0038 11.912 20.088C12.8104 20.9863 13.974 21.5585 15.2188 21.7282V28.1942Z" fill="currentColor" stroke="currentColor" stroke-width="1.5625"/>
<circle cx="16" cy="16" r="12.5" stroke="currentColor"/>
</svg>
