<svg width="32" height="30" viewBox="0 0 32 30" fill="none" xmlns="http://www.w3.org/2000/svg">
    <path
        d="M3.95845 24H1.74254L8.15163 6.54545H10.3335L16.7425 24H14.5266L9.31072 9.30682H9.17436L3.95845 24ZM4.77663 17.1818H13.7085V19.0568H4.77663V17.1818ZM23.0408 24.3068C22.2113 24.3068 21.4585 24.1506 20.7823 23.8381C20.1062 23.5199 19.5692 23.0625 19.1715 22.4659C18.7738 21.8636 18.5749 21.1364 18.5749 20.2841C18.5749 19.5341 18.7227 18.9261 19.0181 18.4602C19.3136 17.9886 19.7085 17.6193 20.2028 17.3523C20.6971 17.0852 21.2425 16.8864 21.8391 16.7557C22.4414 16.6193 23.0465 16.5114 23.6545 16.4318C24.4499 16.3295 25.0948 16.2528 25.5891 16.2017C26.0891 16.1449 26.4528 16.0511 26.68 15.9205C26.913 15.7898 27.0295 15.5625 27.0295 15.2386V15.1705C27.0295 14.3295 26.7994 13.6761 26.3391 13.2102C25.8846 12.7443 25.1942 12.5114 24.2681 12.5114C23.3079 12.5114 22.555 12.7216 22.0096 13.142C21.4641 13.5625 21.0806 14.0114 20.859 14.4886L18.9499 13.8068C19.2908 13.0114 19.7454 12.392 20.3136 11.9489C20.8874 11.5 21.5124 11.1875 22.1886 11.0114C22.8704 10.8295 23.5408 10.7386 24.1999 10.7386C24.6204 10.7386 25.1033 10.7898 25.6488 10.892C26.1999 10.9886 26.7312 11.1903 27.2425 11.4972C27.7596 11.804 28.1886 12.267 28.5295 12.8864C28.8704 13.5057 29.0408 14.3352 29.0408 15.375V24H27.0295V22.2273H26.9272C26.7908 22.5114 26.5636 22.8153 26.2454 23.1392C25.9272 23.4631 25.5039 23.7386 24.9755 23.9659C24.4471 24.1932 23.8022 24.3068 23.0408 24.3068ZM23.3477 22.5C24.1431 22.5 24.8136 22.3438 25.359 22.0312C25.9102 21.7188 26.3249 21.3153 26.6033 20.821C26.8874 20.3267 27.0295 19.8068 27.0295 19.2614V17.4205C26.9442 17.5227 26.7567 17.6165 26.467 17.7017C26.1829 17.7812 25.8533 17.8523 25.4783 17.9148C25.109 17.9716 24.7482 18.0227 24.396 18.0682C24.0494 18.108 23.7681 18.142 23.5522 18.1705C23.0295 18.2386 22.5408 18.3494 22.0863 18.5028C21.6374 18.6506 21.2738 18.875 20.9954 19.1761C20.7227 19.4716 20.5863 19.875 20.5863 20.3864C20.5863 21.0852 20.8448 21.6136 21.3619 21.9716C21.8846 22.3239 22.5465 22.5 23.3477 22.5Z"
        fill="currentColor" />
</svg>