<svg width="32" height="32" viewBox="0 0 32 32" fill="none" xmlns="http://www.w3.org/2000/svg">
<path d="M11 9H8.5V14.5L7 16L8.5 17.5V23H11" stroke="#FF8200"/>
<path d="M21 23L23.5 23L23.5 17.5L25 16L23.5 14.5L23.5 9L21 9" stroke="#FF8200"/>
<path d="M16.1983 11.6C16.7103 11.6 17.1503 11.668 17.5183 11.804C17.8863 11.932 18.2463 12.132 18.5983 12.404L18.0103 13.088C17.5223 12.68 16.9423 12.476 16.2703 12.476C15.5263 12.476 14.9183 12.748 14.4463 13.292C13.9823 13.828 13.7503 14.684 13.7503 15.86C13.7503 17.028 13.9783 17.884 14.4343 18.428C14.8903 18.972 15.4983 19.244 16.2583 19.244C16.6743 19.244 17.0303 19.184 17.3263 19.064C17.6223 18.944 17.9063 18.776 18.1783 18.56L18.7183 19.232C18.1023 19.832 17.2783 20.132 16.2463 20.132C15.5663 20.132 14.9543 19.968 14.4103 19.64C13.8663 19.304 13.4383 18.816 13.1263 18.176C12.8143 17.536 12.6583 16.764 12.6583 15.86C12.6583 14.964 12.8143 14.196 13.1263 13.556C13.4463 12.908 13.8743 12.42 14.4103 12.092C14.9543 11.764 15.5503 11.6 16.1983 11.6Z" fill="#FF8200"/>
</svg>
