<svg width="32" height="32" viewBox="0 0 32 32" fill="none" xmlns="http://www.w3.org/2000/svg">
<path d="M10 17L8.63246 21.1026C8.37187 21.8844 9.11561 22.6281 9.89737 22.3675L14 21M10 17L20.2929 6.70711C20.6834 6.31658 21.3166 6.31658 21.7071 6.70711L24.2929 9.29289C24.6834 9.68342 24.6834 10.3166 24.2929 10.7071L14 21M10 17H11C11.5523 17 12 17.4477 12 18V18C12 18.5523 12.4477 19 13 19V19C13.5523 19 14 19.4477 14 20V21" stroke="#FE8A2C"/>
<path d="M8.5 23C7.83333 23 7.83333 22 8.5 22C9.16667 22 9.16667 23 8.5 23Z" fill="#FE8A2C" stroke="#FE8A2C"/>
</svg>
