<svg width="32" height="32" viewBox="0 0 32 32" fill="none" xmlns="http://www.w3.org/2000/svg">
<path d="M9.47749 20H8.27721L11.7488 10.5455H12.9306L16.4022 20H15.2019L12.3766 12.0412H12.3028L9.47749 20ZM9.92068 16.3068H14.7587V17.3224H9.92068V16.3068ZM19.8138 20.1662C19.3645 20.1662 18.9567 20.0816 18.5904 19.9123C18.2242 19.7399 17.9333 19.4922 17.7179 19.169C17.5025 18.8428 17.3948 18.4489 17.3948 17.9872C17.3948 17.581 17.4748 17.2517 17.6348 16.9993C17.7948 16.7438 18.0087 16.5438 18.2765 16.3991C18.5443 16.2545 18.8397 16.1468 19.1629 16.076C19.4891 16.0021 19.8169 15.9437 20.1462 15.9006C20.577 15.8452 20.9264 15.8036 21.1941 15.7759C21.4649 15.7451 21.6619 15.6944 21.785 15.6236C21.9112 15.5528 21.9743 15.4297 21.9743 15.2543V15.2173C21.9743 14.7618 21.8497 14.4079 21.6004 14.1555C21.3542 13.9032 20.9802 13.777 20.4786 13.777C19.9584 13.777 19.5506 13.8909 19.2552 14.1186C18.9597 14.3464 18.752 14.5895 18.632 14.848L17.5979 14.4787C17.7825 14.0478 18.0287 13.7124 18.3365 13.4723C18.6474 13.2292 18.9859 13.0599 19.3521 12.9645C19.7215 12.866 20.0846 12.8168 20.4416 12.8168C20.6694 12.8168 20.931 12.8445 21.2264 12.8999C21.525 12.9522 21.8127 13.0614 22.0897 13.2276C22.3698 13.3938 22.6021 13.6446 22.7868 13.9801C22.9715 14.3156 23.0638 14.7649 23.0638 15.3281V20H21.9743V19.0398H21.9189C21.845 19.1937 21.7219 19.3583 21.5496 19.5337C21.3772 19.7092 21.1479 19.8584 20.8617 19.9815C20.5755 20.1046 20.2262 20.1662 19.8138 20.1662ZM19.98 19.1875C20.4109 19.1875 20.774 19.1029 21.0695 18.9336C21.368 18.7643 21.5927 18.5458 21.7435 18.2781C21.8974 18.0103 21.9743 17.7287 21.9743 17.4332V16.4361C21.9281 16.4915 21.8266 16.5423 21.6696 16.5884C21.5157 16.6315 21.3372 16.67 21.1341 16.7038C20.9341 16.7346 20.7386 16.7623 20.5478 16.7869C20.3601 16.8085 20.2077 16.8269 20.0908 16.8423C19.8076 16.8793 19.543 16.9393 19.2967 17.0224C19.0536 17.1024 18.8566 17.224 18.7058 17.3871C18.5581 17.5471 18.4842 17.7656 18.4842 18.0426C18.4842 18.4212 18.6243 18.7074 18.9043 18.9013C19.1875 19.0921 19.546 19.1875 19.98 19.1875Z" fill="#FE8A2C"/>
</svg>
